<?xml version="1.0" encoding="iso-8859-1"?>
<!-- Generator: Adobe Illustrator 19.0.0, SVG Export Plug-In . SVG Version: 6.00 Build 0)  -->
<svg version="1.1" id="Capa_1" xmlns="http://www.w3.org/2000/svg" xmlns:xlink="http://www.w3.org/1999/xlink" x="0px" y="0px"
	 viewBox="0 0 512 512" style="enable-background:new 0 0 512 512;" xml:space="preserve">
<g>
	<g>
		<g>
			<path d="M256,137.143c-65.643,0-118.857,53.214-118.857,118.857S190.357,374.857,256,374.857
				c65.613-0.073,118.784-53.244,118.857-118.857C374.857,190.357,321.643,137.143,256,137.143z"/>
			<path d="M256,82.286c10.099,0,18.286-8.187,18.286-18.286V18.286C274.286,8.187,266.099,0,256,0s-18.286,8.187-18.286,18.286V64
				C237.714,74.099,245.901,82.286,256,82.286z"/>
			<path d="M256,429.714c-10.099,0-18.286,8.187-18.286,18.286v45.714c0,10.099,8.187,18.286,18.286,18.286
				s18.286-8.187,18.286-18.286V448C274.286,437.901,266.099,429.714,256,429.714z"/>
			<path d="M101.679,127.54c7.236,6.911,18.626,6.911,25.862,0c3.43-3.429,5.357-8.081,5.357-12.931
				c0-4.85-1.927-9.502-5.357-12.931L95.214,69.357C91.786,65.927,87.135,64,82.286,64s-9.5,1.927-12.929,5.357
				C65.927,72.785,64,77.436,64,82.286s1.927,9.5,5.357,12.929L101.679,127.54z"/>
			<path d="M82.286,256c0-10.099-8.187-18.286-18.286-18.286H18.286C8.191,237.724,0.01,245.905,0,256
				c0.01,10.095,8.191,18.276,18.286,18.286H64C74.099,274.286,82.286,266.099,82.286,256z"/>
			<path d="M119.356,379.699c-6.32-1.689-13.06,0.126-17.677,4.761l-32.321,32.326c-3.43,3.428-5.357,8.079-5.357,12.929
				s1.927,9.5,5.357,12.929c7.234,6.911,18.623,6.911,25.857,0l32.326-32.321c4.634-4.617,6.45-11.357,4.761-17.677
				S125.676,381.388,119.356,379.699z"/>
			<path d="M410.321,384.46c-4.617-4.634-11.357-6.45-17.677-4.761s-11.256,6.625-12.945,12.945s0.126,13.06,4.761,17.677
				l32.326,32.321c7.234,6.911,18.623,6.911,25.857,0c3.43-3.428,5.357-8.079,5.357-12.929s-1.927-9.5-5.357-12.929L410.321,384.46z
				"/>
			<path d="M493.714,237.714H448c-10.099,0-18.286,8.187-18.286,18.286s8.187,18.286,18.286,18.286h45.714
				c10.099,0,18.286-8.187,18.286-18.286S503.813,237.714,493.714,237.714z"/>
			<path d="M410.321,127.54l32.321-32.326c4.619-4.619,6.423-11.351,4.732-17.661c-1.691-6.31-6.619-11.238-12.929-12.929
				c-6.31-1.691-13.042,0.113-17.661,4.732l-32.326,32.321c-3.43,3.429-5.357,8.081-5.357,12.931c0,4.85,1.927,9.502,5.357,12.931
				C391.695,134.451,403.086,134.451,410.321,127.54z"/>
		</g>
	</g>
</g>
<g>
</g>
<g>
</g>
<g>
</g>
<g>
</g>
<g>
</g>
<g>
</g>
<g>
</g>
<g>
</g>
<g>
</g>
<g>
</g>
<g>
</g>
<g>
</g>
<g>
</g>
<g>
</g>
<g>
</g>
</svg>
