<?xml version="1.0" encoding="UTF-8" standalone="no"?>
<!-- Created with Inkscape (http://www.inkscape.org/) -->

<svg
   xmlns:dc="http://purl.org/dc/elements/1.1/"
   xmlns:cc="http://creativecommons.org/ns#"
   xmlns:rdf="http://www.w3.org/1999/02/22-rdf-syntax-ns#"
   xmlns:svg="http://www.w3.org/2000/svg"
   xmlns="http://www.w3.org/2000/svg"
   xmlns:sodipodi="http://sodipodi.sourceforge.net/DTD/sodipodi-0.dtd"
   xmlns:inkscape="http://www.inkscape.org/namespaces/inkscape"
   width="38.180553mm"
   height="38.180553mm"
   viewBox="0 0 38.180553 38.180553"
   version="1.1"
   id="svg8"
   inkscape:version="0.92.1 r15371"
   sodipodi:docname="red_light.svg">
  <defs
     id="defs2" />
  <sodipodi:namedview
     id="base"
     pagecolor="#ffffff"
     bordercolor="#666666"
     borderopacity="1.0"
     inkscape:pageopacity="0.0"
     inkscape:pageshadow="2"
     inkscape:zoom="0.7"
     inkscape:cx="515.46971"
     inkscape:cy="-102.25351"
     inkscape:document-units="mm"
     inkscape:current-layer="g4841"
     showgrid="false"
     inkscape:window-width="1920"
     inkscape:window-height="1057"
     inkscape:window-x="1912"
     inkscape:window-y="-8"
     inkscape:window-maximized="1"
     fit-margin-top="0"
     fit-margin-left="0"
     fit-margin-right="0"
     fit-margin-bottom="0" />
  <metadata
     id="metadata5">
    <rdf:RDF>
      <cc:Work
         rdf:about="">
        <dc:format>image/svg+xml</dc:format>
        <dc:type
           rdf:resource="http://purl.org/dc/dcmitype/StillImage" />
        <dc:title></dc:title>
      </cc:Work>
    </rdf:RDF>
  </metadata>
  <g
     inkscape:label="Ebene 1"
     inkscape:groupmode="layer"
     id="layer1"
     transform="translate(137.42454,-17.870898)">
    <g
       transform="matrix(0.11633226,0,0,0.11633226,-152.92617,1.3001881)"
       id="g4841">
      <g
         id="g4549">
        <path
           id="path4742"
           d="m 297.35441,230.35447 c -42.07853,0 -76.18981,34.11127 -76.18981,76.1898 0,42.07853 34.11128,76.18981 76.18981,76.18981 42.0593,-0.0468 76.14301,-34.13051 76.18981,-76.18981 0,-42.07853 -34.11128,-76.1898 -76.18981,-76.1898 z"
           inkscape:connector-curvature="0"
           style="fill:#f94144;fill-opacity:1;stroke-width:0.64102077" />
        <path
           id="path4744"
           d="m 297.35441,195.18999 c 6.47367,0 11.72171,-5.24804 11.72171,-11.72171 v -29.30362 c 0,-6.47367 -5.24804,-11.72171 -11.72171,-11.72171 -6.47367,0 -11.72171,5.24804 -11.72171,11.72171 v 29.30362 c 0,6.47367 5.24804,11.72171 11.72171,11.72171 z"
           inkscape:connector-curvature="0"
           style="fill:#fb6d70;fill-opacity:1;stroke-width:0.64102077" />
        <path
           id="path4746"
           d="m 297.35441,417.89855 c -6.47367,0 -11.72171,5.24804 -11.72171,11.72171 v 29.30362 c 0,6.47367 5.24804,11.72171 11.72171,11.72171 6.47367,0 11.72171,-5.24804 11.72171,-11.72171 v -29.30362 c 0,-6.47367 -5.24804,-11.72171 -11.72171,-11.72171 z"
           inkscape:connector-curvature="0"
           style="fill:#fb6d70;fill-opacity:1;stroke-width:0.64102077" />
        <path
           id="path4748"
           d="m 198.43144,224.19874 c 4.63842,4.4301 11.93965,4.4301 16.57808,0 2.1987,-2.19806 3.43395,-5.18008 3.43395,-8.28904 0,-3.10895 -1.23525,-6.09098 -3.43395,-8.28904 l -20.72228,-20.71843 c -2.19742,-2.1987 -5.17881,-3.43395 -8.28712,-3.43395 -3.10831,0 -6.0897,1.23525 -8.28776,3.43395 -2.1987,2.19742 -3.43394,5.17881 -3.43394,8.28776 0,3.10895 1.23524,6.0897 3.43394,8.28776 z"
           inkscape:connector-curvature="0"
           style="fill:#fb6d70;fill-opacity:1;stroke-width:0.64102077" />
        <path
           id="path4750"
           d="m 186.00012,306.54427 c 0,-6.47367 -5.24804,-11.72171 -11.7217,-11.72171 h -29.30363 c -6.4711,0.006 -11.71529,5.25061 -11.7217,11.72171 0.006,6.47111 5.2506,11.7153 11.7217,11.72171 h 29.30363 c 6.47366,0 11.7217,-5.24804 11.7217,-11.72171 z"
           inkscape:connector-curvature="0"
           style="fill:#fb6d70;fill-opacity:1;stroke-width:0.64102077" />
        <path
           id="path4752"
           d="m 209.76276,385.8379 c -4.05125,-1.08268 -8.37173,0.0808 -11.33132,3.0519 L 177.713,409.61144 c -2.1987,2.19742 -3.43394,5.1788 -3.43394,8.28776 0,3.10895 1.23524,6.08969 3.43394,8.28775 4.63715,4.4301 11.93773,4.4301 16.57488,0 l 20.72164,-20.71843 c 2.97049,-2.95959 4.13458,-7.28007 3.0519,-11.33132 -1.08269,-4.05126 -4.24741,-7.21662 -8.29866,-8.2993 z"
           inkscape:connector-curvature="0"
           style="fill:#fb6d70;fill-opacity:1;stroke-width:0.64102077" />
        <path
           id="path4754"
           d="m 396.27738,388.8898 c -2.95959,-2.97049 -7.28007,-4.13458 -11.33133,-3.0519 -4.05125,1.08268 -7.21533,4.24676 -8.29801,8.29801 -1.08268,4.05126 0.0808,8.37174 3.0519,11.33133 l 20.72164,20.71843 c 4.63714,4.4301 11.93773,4.4301 16.57487,0 2.1987,-2.19742 3.43395,-5.17881 3.43395,-8.28776 0,-3.10895 -1.23525,-6.08969 -3.43395,-8.28775 z"
           inkscape:connector-curvature="0"
           style="fill:#fb6d70;fill-opacity:1;stroke-width:0.64102077" />
        <path
           id="path4756"
           d="M 449.73402,294.82256 H 420.4304 c -6.47367,0 -11.72171,5.24804 -11.72171,11.72171 0,6.47367 5.24804,11.72171 11.72171,11.72171 h 29.30362 c 6.47367,0 11.72171,-5.24804 11.72171,-11.72171 0,-6.47367 -5.24804,-11.72171 -11.72171,-11.72171 z"
           inkscape:connector-curvature="0"
           style="fill:#fb6d70;fill-opacity:1;stroke-width:0.64102077" />
        <path
           id="path4758"
           d="m 396.27738,224.19874 20.71843,-20.72163 c 2.96088,-2.96088 4.11728,-7.27623 3.03331,-11.32107 -1.08396,-4.04484 -4.24292,-7.20379 -8.28776,-8.28776 -4.04484,-1.08397 -8.36019,0.0724 -11.32106,3.03331 l -20.72164,20.71843 c -2.1987,2.19806 -3.43395,5.18009 -3.43395,8.28904 0,3.10895 1.23525,6.09098 3.43395,8.28904 4.63907,4.43074 11.94093,4.43074 16.57872,6.4e-4 z"
           inkscape:connector-curvature="0"
           style="fill:#fb6d70;fill-opacity:1;stroke-width:0.64102077" />
      </g>
    </g>
  </g>
</svg>
