<svg height="512" viewBox="0 0 64 64" width="512" xmlns="http://www.w3.org/2000/svg"><g id="RFID"><path d="m34 28h2v2h-2z"/><path d="m26 28h2v2h-2z"/><path d="m18 28h2v2h-2z"/><circle cx="27" cy="21" r="1"/><path d="m54.79 33.33-12.79-7.58v13.25a3 3 0 0 1 -2.78 2.98l6.48 6.3-1.4 1.44-13.12-12.78a3.068 3.068 0 0 0 -4.25-.01 2.994 2.994 0 0 0 0 4.24l7.83 9.18a.969.969 0 0 1 .24.65v2a7.008 7.008 0 0 0 7 7h18v-17.32a10.941 10.941 0 0 0 -5.21-9.35z"/><path d="m29.05 34.05a4.994 4.994 0 0 1 3.54 1.46l4.6 4.49h1.81a1 1 0 0 0 1-1v-34a1 1 0 0 0 -1-1h-24a1 1 0 0 0 -1 1v34a1 1 0 0 0 1 1h9.14a4.99 4.99 0 0 1 4.91-5.95zm8.95-7.05v4a1 1 0 0 1 -1 1h-4a1 1 0 0 1 -1-1v-4a1 1 0 0 1 1-1h4a1 1 0 0 1 1 1zm-11-15a8.945 8.945 0 0 0 -6.363 2.637l-1.414-1.414a10.994 10.994 0 0 1 15.554 0l-1.414 1.414a8.945 8.945 0 0 0 -6.363-2.637zm0-6a14.935 14.935 0 0 1 10.6 4.392l-1.411 1.417a13 13 0 0 0 -18.388 0l-1.401-1.417a14.935 14.935 0 0 1 10.6-4.392zm-5 25a1 1 0 0 1 -1 1h-4a1 1 0 0 1 -1-1v-4a1 1 0 0 1 1-1h4a1 1 0 0 1 1 1zm.049-14.944a6.989 6.989 0 0 1 9.9 0l-1.419 1.408a4.988 4.988 0 0 0 -7.06 0zm7.951 4.944a3 3 0 1 1 -3-3 3 3 0 0 1 3 3zm-6 10v-4a1 1 0 0 1 1-1h4a1 1 0 0 1 1 1v4a1 1 0 0 1 -1 1h-4a1 1 0 0 1 -1-1z"/></g></svg>